<svg xmlns="http://www.w3.org/2000/svg" viewBox="0 0 1265 86" width="1265" height="86">
	<style>
		tspan { white-space:pre }
		.shp0 { fill: #ffffff } 
	</style>
	<g id="Layer">
		<path id="Layer" class="shp0" d="M0.6 86L1265 86L1265 48.5C1261.4 49.6 1257.9 51 1254.6 52.9C1248.3 56.5 1242.8 61.4 1238.6 67.4C1230.5 65.9 1222.2 66.5 1214.4 69.1C1211.2 30.1 1177.1 1 1138 4.2C1113.2 6.2 1091.2 21.1 1080.1 43.5C1060.2 25 1029.1 26.2 1010.7 46.1C1002.5 54.9 997.9 66.4 997.6 78.4C997.2 78.6 996.7 78.8 996.3 79.1C992.8 81 989.7 83.5 986.9 86.3C970.3 61.4 938.7 51.3 910.7 61.9C898.5 28.5 861.6 11.3 828.2 23.5C818.7 27 810.1 32.6 803.2 40C796.1 33.1 785.7 31.2 776.6 35C746.2 -4.3 689.6 -11.3 650.4 19.2C635.6 30.7 624.8 46.6 619.4 64.6C614.5 65.2 609.7 66.5 605.2 68.5C597 42.6 569.4 28.3 543.5 36.5C528.5 41.3 516.6 53 511.7 68C496.8 69.3 482.7 75.2 471.4 85C459.9 47.6 420.2 26.6 382.7 38.2C367.9 42.8 355 52.1 346 64.7C333.4 58.7 318.7 59 306.3 65.3C302.2 53.1 290.1 45.5 277.3 46.9C277.1 46.6 277 46.3 276.8 46C252.4 2.7 197.4 -12.6 154.1 11.8C140.8 19.3 129.7 30 121.7 43C84.8 18.5 35 28.5 10.4 65.4C6.1 71.8 2.9 78.7 0.6 86L0.6 86Z" />
	</g>
</svg>